<svg width="32" height="32" viewBox="0 0 32 32" fill="none" xmlns="http://www.w3.org/2000/svg">
<path fill-rule="evenodd" clip-rule="evenodd" d="M24.3951 15.96C23.9417 16.7867 23.0617 17.3334 22.0617 17.3334H12.1284L10.6617 20H26.6617V22.6667H10.6617C8.63508 22.6667 7.35508 20.4934 8.32841 18.7067L10.1284 15.4534L5.32841 5.33335H2.66174V2.66669H7.02174L8.27508 5.33335H28.0084C29.0217 5.33335 29.6617 6.42669 29.1684 7.30669L24.3951 15.96ZM25.7417 8.00002H9.54174L12.7017 14.6667H22.0617L25.7417 8.00002ZM10.6617 24C9.19508 24 8.00841 25.2 8.00841 26.6667C8.00841 28.1334 9.19508 29.3334 10.6617 29.3334C12.1284 29.3334 13.3284 28.1334 13.3284 26.6667C13.3284 25.2 12.1284 24 10.6617 24ZM21.3417 26.6667C21.3417 25.2 22.5284 24 23.9951 24C25.4617 24 26.6617 25.2 26.6617 26.6667C26.6617 28.1334 25.4617 29.3334 23.9951 29.3334C22.5284 29.3334 21.3417 28.1334 21.3417 26.6667Z" fill="#ED3237"/>
</svg>
